Coordinates
version=1
nRows=4
nColumns=107
inDegrees=yes

Units are S.I. units (second, meters, Newtons, ...)
If the header above contains a line with 'inDegrees', this indicates whether rotational values are in degrees (yes) or radians (no).

endheader
time	sternoclavicular_r2	sternoclavicular_r3	unrotscap_r3	unrotscap_r2	acromioclavicular_r2	acromioclavicular_r3	acromioclavicular_r1	unrothum_r1	unrothum_r3	unrothum_r2	elv_angle	shoulder_elv	shoulder1_r2	shoulder_rot	elbow_flexion	pro_sup	deviation	flexion	proximal_distal_r1	proximal_distal_r3	cmc_flexion	cmc_abduction	mp_flexion	ip_flexion	mcp2_flexion	mcp2_abduction	pm2_flexion	md2_flexion	mcp3_flexion	mcp3_abduction	pm3_flexion	md3_flexion	mcp4_flexion	mcp4_abduction	pm4_flexion	md4_flexion	mcp5_flexion	mcp5_abduction	pm5_flexion	md5_flexion	bicpt_tx	bicpt_ty	bicpt_tz	bicpt2_tx	bicpt2_ty	bicpt2_tz	ptpt_tx	ptpt_ty	ptpt_tz	FCUpt_tx	FCUpt_ty	FCUpt_tz	EDCpt_tx	EDCpt_ty	EDCpt_tz	APLpt_tx	APLpt_ty	APLpt_tz	FPLpt_tx	FPLpt_ty	FPLpt_tz	FPLpt2_tx	FPLpt2_ty	FPLpt2_tz	PEC1pt2_tx	PEC1pt2_ty	PEC1pt2_tz	PEC1pt3_tx	PEC1pt3_ty	PEC1pt3_tz	PEC2pt2_tx	PEC2pt2_ty	PEC2pt2_tz	PEC2pt3_tx	PEC2pt3_ty	PEC2pt3_tz	PEC3pt2_tx	PEC3pt2_ty	PEC3pt2_tz	PEC3pt3_tx	PEC3pt3_ty	PEC3pt3_tz	DELT2pt2a_tx	DELT2pt2a_ty	DELT2pt2a_tz	DELT2pt2_tx	DELT2pt2_ty	DELT2pt2_tz	LAT1pt2_tx	LAT1pt2_ty	LAT1pt2_tz	LAT1pt3_tx	LAT1pt3_ty	LAT1pt3_tz	LAT2pt2_tx	LAT2pt2_ty	LAT2pt2_tz	LAT2pt3_tx	LAT2pt3_ty	LAT2pt3_tz	LAT3pt2_tx	LAT3pt2_ty	LAT3pt2_tz	LAT3pt3_tx	LAT3pt3_ty	LAT3pt3_tz
      1.23333333	     -0.29019639	      0.12291350	     -0.12291350	      0.29019639	     -0.05875887	      0.47486849	      0.21345012	     -0.21345012	     -0.47486849	      0.05875887	    114.76155807	     68.70657580	     -2.00296704	    -86.70124429	     38.10615502	     79.29910567	      0.42532071	     -1.19586982	      0.42915422	     -0.59793491	     15.11474210	     -7.76189127	      4.64082328	     10.26288779	    -19.65471404	      5.34624567	     18.75065977	     -2.94014534	    -37.18138299	     -1.92953996	     13.95221739	     15.89047874	    -42.85044668	     -3.81667078	      9.08854825	     22.05369692	    -51.46344079	    -13.49866547	      4.26565800	      5.17521085	      0.00116043	     -0.03196755	     -0.00500350	      0.01488120	     -0.02055172	     -0.00219208	      0.00169069	     -0.06868873	     -0.00643797	      0.01197516	     -0.18245828	     -0.00008386	     -0.00951587	      0.00321722	     -0.00055422	      0.00002590	      0.00001036	      0.00005180	      0.00003315	      0.00009945	      0.00005594	      0.00002352	     -0.00025096	     -0.00030115	      0.00225205	      0.00790126	      0.00549653	     -0.00736688	      0.01778738	     -0.01687130	      0.00225205	      0.00790126	      0.00549653	      0.00049621	      0.01648959	     -0.00866467	      0.00365531	      0.00439379	      0.01520890	      0.00000000	      0.00630571	      0.00000000	     -0.00645079	     -0.02981105	     -0.00518967	      0.02251232	     -0.00280184	     -0.04359733	     -0.00080158	      0.01343596	     -0.00549653	      0.00221388	      0.01939054	     -0.01603155	     -0.00538202	      0.01164196	     -0.00492398	     -0.01122208	      0.02458171	     -0.02752082	     -0.02107003	      0.01301609	     -0.00660347	     -0.01397035	      0.02839874	     -0.03439149
      1.26666667	     -0.28840467	      0.12215461	     -0.12215461	      0.28840467	     -0.05839608	      0.47193658	      0.21213224	     -0.21213224	     -0.47193658	      0.05839608	    114.76593650	     68.28236998	     -2.00304346	    -86.86949553	     39.13319470	     79.93399769	      0.42651068	     -1.19864961	      0.42993939	     -0.59932481	     14.79312824	     -7.68709179	      4.70687341	      9.63099078	    -21.53680841	      5.45106435	     20.65509573	     -8.76364767	    -40.40925457	     -1.43834293	     14.26187703	     14.67533901	    -46.91325941	     -3.88469970	     10.08290916	     20.95957319	    -54.80516349	    -13.53979676	      5.29176642	      5.08211764	      0.00119440	     -0.03208526	     -0.00502246	      0.01482486	     -0.02083072	     -0.00208904	      0.00164378	     -0.06871906	     -0.00648911	      0.01204684	     -0.18243793	     -0.00006943	     -0.00959206	      0.00325081	     -0.00057241	      0.00002317	      0.00000927	      0.00004634	      0.00002966	      0.00008897	      0.00005004	      0.00002422	     -0.00024826	     -0.00029791	      0.00223815	      0.00785248	      0.00546259	     -0.00732139	      0.01767756	     -0.01676713	      0.00223815	      0.00785248	      0.00546259	      0.00049315	      0.01638778	     -0.00861117	      0.00363806	      0.00436666	      0.01516152	      0.00000000	      0.00622777	      0.00000000	     -0.00641096	     -0.02962699	     -0.00512481	      0.02245915	     -0.00280699	     -0.04369673	     -0.00079663	      0.01335301	     -0.00546259	      0.00220021	      0.01927082	     -0.01593257	     -0.00534879	      0.01157008	     -0.00489357	     -0.01115280	      0.02442994	     -0.02735091	     -0.02093994	      0.01293573	     -0.00656270	     -0.01388409	      0.02822340	     -0.03417915
      1.30000000	     -0.28673293	      0.12144654	     -0.12144654	      0.28673293	     -0.05805759	      0.46920098	      0.21090261	     -0.21090261	     -0.46920098	      0.05805759	    114.80561398	     67.88656957	     -2.00373596	    -87.07758341	     40.08488020	     80.68445202	      0.42758523	     -1.20123637	      0.43064644	     -0.60061819	     13.52592593	     -7.52578447	      4.96318441	      9.16400483	    -22.82309074	      5.30696604	     22.62886086	    -14.81252237	    -42.46200276	     -1.34740332	     13.77543819	     14.63051061	    -48.87724760	     -4.14867978	      8.24820740	     21.75387281	    -56.48396355	    -13.63597918	      4.30275323	      5.08812710	      0.00122588	     -0.03219434	     -0.00504003	      0.01475707	     -0.02108925	     -0.00196653	      0.00158833	     -0.06875491	     -0.00654957	      0.01213173	     -0.18241373	     -0.00005198	     -0.00968211	      0.00329067	     -0.00059419	      0.00002062	      0.00000825	      0.00004123	      0.00002639	      0.00007917	      0.00004453	      0.00002687	     -0.00023652	     -0.00028382	      0.00222517	      0.00780696	      0.00543093	     -0.00727895	      0.01757509	     -0.01666994	      0.00222517	      0.00780696	      0.00543093	      0.00049029	      0.01629279	     -0.00856126	      0.00362190	      0.00434135	      0.01511690	      0.00000000	      0.00615550	      0.00000000	     -0.00637380	     -0.02945525	     -0.00506465	      0.02239290	     -0.00281335	     -0.04381936	     -0.00079201	      0.01327561	     -0.00543093	      0.00218746	      0.01915911	     -0.01584021	     -0.00531779	      0.01150301	     -0.00486521	     -0.01108815	      0.02428833	     -0.02719237	     -0.02081857	      0.01286074	     -0.00652466	     -0.01380361	      0.02805981	     -0.03398103
      1.33333333	     -0.28552164	      0.12093349	     -0.12093349	      0.28552164	     -0.05781232	      0.46721886	      0.21001166	     -0.21001166	     -0.46721886	      0.05781232	    114.94160924	     67.59978546	     -2.00610953	    -87.55481101	     40.86310855	     81.61193429	      0.42831727	     -1.20302655	      0.43112712	     -0.60151328	     12.05812267	     -7.16749010	      4.77997411	      8.13023161	    -24.79488676	      5.24137960	     25.90891080	    -17.11297290	    -44.59425077	     -1.39137691	     14.52866429	     15.55977223	    -51.07009552	     -4.47852301	      8.50509844	     22.96631523	    -57.78031867	    -13.76532353	      3.70640288	      5.09676912	      0.00125162	     -0.03228354	     -0.00505440	      0.01467147	     -0.02130066	     -0.00181399	      0.00151980	     -0.06879923	     -0.00662428	      0.01223689	     -0.18238360	     -0.00002981	     -0.00979341	      0.00334018	     -0.00062154	      0.00001884	      0.00000754	      0.00003769	      0.00002412	      0.00007236	      0.00004070	      0.00002961	     -0.00022069	     -0.00026483	      0.00221577	      0.00777398	      0.00540799	     -0.00724821	      0.01750085	     -0.01659952	      0.00221577	      0.00777398	      0.00540799	      0.00048822	      0.01622396	     -0.00852509	      0.00361016	      0.00432301	      0.01508432	      0.00000000	      0.00610340	      0.00000000	     -0.00634687	     -0.02933082	     -0.00502128	      0.02223848	     -0.00282782	     -0.04409899	     -0.00078866	      0.01321952	     -0.00540799	      0.00217822	      0.01907818	     -0.01577330	     -0.00529532	      0.01145442	     -0.00484466	     -0.01104131	      0.02418572	     -0.02707749	     -0.02073062	      0.01280641	     -0.00649710	     -0.01374530	      0.02794127	     -0.03383748
